<svg version="1.1" id="Icons" xmlns="http://www.w3.org/2000/svg" xmlns:xlink="http://www.w3.org/1999/xlink" viewBox="0 0 32 32" xml:space="preserve" width="64px" height="64px" fill="#000000"><g id="SVGRepo_bgCarrier" stroke-width="0"></g><g id="SVGRepo_tracerCarrier" stroke-linecap="round" stroke-linejoin="round"></g><g id="SVGRepo_iconCarrier"> <style type="text/css"> .st0{fill:none;stroke:#29ABE2;stroke-width:2;stroke-linecap:round;stroke-linejoin:round;stroke-miterlimit:10;} .st1{fill:none;stroke:#29ABE2;stroke-width:2;stroke-linecap:round;stroke-linejoin:round;} .st2{fill:none;stroke:#29ABE2;stroke-width:2;stroke-linecap:round;stroke-linejoin:round;stroke-dasharray:5.2066,0;} </style> <path class="st0" d="M20,7h-8V5c0-1.1,0.9-2,2-2h4c1.1,0,2,0.9,2,2V7z"></path> <polyline class="st0" points="12,5 6,5 6,29 26,29 26,5 20,5 "></polyline> <path class="st0" d="M16,11c-2.2,0-4,1.8-4,4c0,2.2,1.8,4,4,4s4-1.8,4-4"></path> <path class="st0" d="M17,10v4h4C21,11.8,19.2,10,17,10z"></path> <line class="st0" x1="10" y1="22" x2="16" y2="22"></line> <line class="st0" x1="10" y1="25" x2="12" y2="25"></line> </g></svg>